<svg xmlns="http://www.w3.org/2000/svg" viewBox="0 0 48 48" fill="none">
  <path d="M24 8c-6 0-10 4.5-10 10.5 0 2.2.6 4.2 1.6 5.9" stroke="#00E676" stroke-width="2.2" stroke-linecap="round"/>
  <path d="M24 8c6 0 10 4.5 10 10.5 0 2.2-.6 4.2-1.6 5.9" stroke="#00E676" stroke-width="2.2" stroke-linecap="round"/>
  <path d="M18 20c0 3.3 2.7 6 6 6s6-2.7 6-6" stroke="#00E676" stroke-width="2.2" stroke-linecap="round"/>
  <path d="M16 26c0 5.5 3.6 10 8 10s8-4.5 8-10" stroke="#00E676" stroke-width="2.2" stroke-linecap="round"/>
  <path d="M14 32c0 7.2 4.5 12 10 12s10-4.8 10-12" stroke="#00E676" stroke-width="2.2" stroke-linecap="round"/>
  <path d="M12 38c0 9 6 14 12 14s12-5 12-14" stroke="#00E676" stroke-width="2.2" stroke-linecap="round"/>
</svg>
